{
  "accessors": [
    {
      "bufferView": 0,
      "componentType": 5125,
      "count": 594,
      "type": "SCALAR"
    },
    {
      "bufferView": 1,
      "componentType": 5126,
      "count": 348,
      "max": [
        2.43122124671936,
        12.1817197799683,
        2.43122124671936
      ],
      "min": [
        -2.43122124671936,
        0.469895362854004,
        -2.43122124671936
      ],
      "type": "VEC3"
    },
    {
      "bufferView": 2,
      "componentType": 5126,
      "count": 348,
      "type": "VEC3"
    },
    {
      "bufferView": 3,
      "componentType": 5126,
      "count": 348,
      "type": "VEC4"
    },
    {
      "bufferView": 4,
      "componentType": 5126,
      "count": 348,
      "type": "VEC2"
    }
  ],
  "asset": {
    "generator": "Adobe Substance 3D Painter 8.3.0",
    "version": "2.0"
  },
  "bufferViews": [
    {
      "buffer": 0,
      "byteLength": 2376,
      "target": 34963
    },
    {
      "buffer": 0,
      "byteLength": 4176,
      "byteOffset": 2376,
      "target": 34962
    },
    {
      "buffer": 0,
      "byteLength": 4176,
      "byteOffset": 6552,
      "target": 34962
    },
    {
      "buffer": 0,
      "byteLength": 5568,
      "byteOffset": 10728,
      "target": 34962
    },
    {
      "buffer": 0,
      "byteLength": 2784,
      "byteOffset": 16296,
      "target": 34962
    }
  ],
  "buffers": [
    {
      "byteLength": 19080,
      "uri": "名称未設定.bin"
    }
  ],
  "images": [
    {
      "uri": "blinn5_baseColor.png"
    },
    {
      "uri": "blinn5_occlusionRoughnessMetallic.png"
    },
    {
      "uri": "blinn5_normal.png"
    }
  ],
  "materials": [
    {
      "alphaMode": "OPAQUE",
      "name": "blinn5",
      "normalTexture": {
        "index": 2
      },
      "occlusionTexture": {
        "index": 1
      },
      "pbrMetallicRoughness": {
        "baseColorTexture": {
          "index": 0
        },
        "metallicRoughnessTexture": {
          "index": 1
        }
      }
    }
  ],
  "meshes": [
    {
      "name": "polySurface3260",
      "primitives": [
        {
          "attributes": {
            "NORMAL": 2,
            "POSITION": 1,
            "TANGENT": 3,
            "TEXCOORD_0": 4
          },
          "indices": 0,
          "material": 0,
          "mode": 4
        }
      ]
    }
  ],
  "nodes": [
    {
      "children": [
        1
      ],
      "name": "RootNode"
    },
    {
      "children": [
        2
      ],
      "name": "polySurface3248"
    },
    {
      "children": [
        3
      ],
      "name": "polySurface3260"
    },
    {
      "mesh": 0,
      "name": "polySurface3260"
    }
  ],
  "samplers": [
    {
      "magFilter": 9729,
      "minFilter": 9985,
      "wrapS": 10497,
      "wrapT": 10497
    }
  ],
  "scene": 0,
  "scenes": [
    {
      "name": "Scene",
      "nodes": [
        0
      ]
    }
  ],
  "textures": [
    {
      "sampler": 0,
      "source": 0
    },
    {
      "sampler": 0,
      "source": 1
    },
    {
      "sampler": 0,
      "source": 2
    }
  ]
}